<mxfile>
    <diagram id="R2lEEEUBdFMjLlhIrx00" name="Page-1">
        <mxGraphModel dx="698" dy="585" grid="1" gridSize="10" guides="1" tooltips="1" connect="1" arrows="1" fold="1" page="1" pageScale="1" pageWidth="850" pageHeight="1100" math="0" shadow="0" extFonts="Permanent Marker^https://fonts.googleapis.com/css?family=Permanent+Marker">
            <root>
                <mxCell id="0"/>
                <mxCell id="1" parent="0"/>
                <mxCell id="Sq5pJA0LLEWkR0wtko4C-2" style="edgeStyle=orthogonalEdgeStyle;rounded=0;orthogonalLoop=1;jettySize=auto;html=1;entryX=1;entryY=0.5;entryDx=0;entryDy=0;" parent="1" source="Sq5pJA0LLEWkR0wtko4C-7" target="Sq5pJA0LLEWkR0wtko4C-10" edge="1">
                    <mxGeometry relative="1" as="geometry"/>
                </mxCell>
                <mxCell id="Sq5pJA0LLEWkR0wtko4C-3" style="rounded=0;orthogonalLoop=1;jettySize=auto;html=1;entryX=1;entryY=1;entryDx=0;entryDy=0;" parent="1" source="Sq5pJA0LLEWkR0wtko4C-7" target="Sq5pJA0LLEWkR0wtko4C-11" edge="1">
                    <mxGeometry relative="1" as="geometry"/>
                </mxCell>
                <mxCell id="Sq5pJA0LLEWkR0wtko4C-4" style="edgeStyle=none;rounded=0;orthogonalLoop=1;jettySize=auto;html=1;entryX=0.663;entryY=1.111;entryDx=0;entryDy=0;entryPerimeter=0;" parent="1" source="Sq5pJA0LLEWkR0wtko4C-7" target="Sq5pJA0LLEWkR0wtko4C-8" edge="1">
                    <mxGeometry relative="1" as="geometry"/>
                </mxCell>
                <mxCell id="Sq5pJA0LLEWkR0wtko4C-5" style="edgeStyle=none;rounded=0;orthogonalLoop=1;jettySize=auto;html=1;entryX=0.357;entryY=1.044;entryDx=0;entryDy=0;entryPerimeter=0;" parent="1" source="Sq5pJA0LLEWkR0wtko4C-7" target="Sq5pJA0LLEWkR0wtko4C-9" edge="1">
                    <mxGeometry relative="1" as="geometry"/>
                </mxCell>
                <mxCell id="Sq5pJA0LLEWkR0wtko4C-6" style="edgeStyle=none;rounded=0;orthogonalLoop=1;jettySize=auto;html=1;" parent="1" source="Sq5pJA0LLEWkR0wtko4C-7" target="Sq5pJA0LLEWkR0wtko4C-12" edge="1">
                    <mxGeometry relative="1" as="geometry"/>
                </mxCell>
                <mxCell id="Sq5pJA0LLEWkR0wtko4C-7" value="Employee" style="whiteSpace=wrap;html=1;align=center;" parent="1" vertex="1">
                    <mxGeometry x="160" y="190" width="100" height="40" as="geometry"/>
                </mxCell>
                <mxCell id="Sq5pJA0LLEWkR0wtko4C-8" value="username" style="ellipse;whiteSpace=wrap;html=1;align=center;fontStyle=4;" parent="1" vertex="1">
                    <mxGeometry x="150" y="110" width="80" height="30" as="geometry"/>
                </mxCell>
                <mxCell id="Sq5pJA0LLEWkR0wtko4C-9" value="Email" style="ellipse;whiteSpace=wrap;html=1;align=center;" parent="1" vertex="1">
                    <mxGeometry x="240" y="110" width="70" height="30" as="geometry"/>
                </mxCell>
                <mxCell id="Sq5pJA0LLEWkR0wtko4C-10" value="secondName" style="ellipse;whiteSpace=wrap;html=1;align=center;" parent="1" vertex="1">
                    <mxGeometry x="30" y="195" width="90" height="30" as="geometry"/>
                </mxCell>
                <mxCell id="Sq5pJA0LLEWkR0wtko4C-11" value="FirstName" style="ellipse;whiteSpace=wrap;html=1;align=center;" parent="1" vertex="1">
                    <mxGeometry x="60" y="120" width="70" height="30" as="geometry"/>
                </mxCell>
                <mxCell id="Sq5pJA0LLEWkR0wtko4C-12" value="password" style="ellipse;whiteSpace=wrap;html=1;align=center;" parent="1" vertex="1">
                    <mxGeometry x="290" y="160" width="70" height="30" as="geometry"/>
                </mxCell>
                <mxCell id="Sq5pJA0LLEWkR0wtko4C-13" style="edgeStyle=none;rounded=0;orthogonalLoop=1;jettySize=auto;html=1;entryX=0.5;entryY=1;entryDx=0;entryDy=0;" parent="1" source="Sq5pJA0LLEWkR0wtko4C-19" target="Sq5pJA0LLEWkR0wtko4C-25" edge="1">
                    <mxGeometry relative="1" as="geometry"/>
                </mxCell>
                <mxCell id="Sq5pJA0LLEWkR0wtko4C-14" style="edgeStyle=none;rounded=0;orthogonalLoop=1;jettySize=auto;html=1;entryX=0;entryY=1;entryDx=0;entryDy=0;" parent="1" source="Sq5pJA0LLEWkR0wtko4C-19" target="Sq5pJA0LLEWkR0wtko4C-21" edge="1">
                    <mxGeometry relative="1" as="geometry"/>
                </mxCell>
                <mxCell id="Sq5pJA0LLEWkR0wtko4C-15" style="edgeStyle=none;rounded=0;orthogonalLoop=1;jettySize=auto;html=1;entryX=0;entryY=1;entryDx=0;entryDy=0;" parent="1" source="Sq5pJA0LLEWkR0wtko4C-19" target="Sq5pJA0LLEWkR0wtko4C-22" edge="1">
                    <mxGeometry relative="1" as="geometry"/>
                </mxCell>
                <mxCell id="Sq5pJA0LLEWkR0wtko4C-16" style="edgeStyle=none;rounded=0;orthogonalLoop=1;jettySize=auto;html=1;entryX=0;entryY=0.5;entryDx=0;entryDy=0;" parent="1" source="Sq5pJA0LLEWkR0wtko4C-19" target="Sq5pJA0LLEWkR0wtko4C-23" edge="1">
                    <mxGeometry relative="1" as="geometry"/>
                </mxCell>
                <mxCell id="Sq5pJA0LLEWkR0wtko4C-17" style="edgeStyle=none;rounded=0;orthogonalLoop=1;jettySize=auto;html=1;entryX=0.5;entryY=0;entryDx=0;entryDy=0;" parent="1" source="Sq5pJA0LLEWkR0wtko4C-19" target="Sq5pJA0LLEWkR0wtko4C-24" edge="1">
                    <mxGeometry relative="1" as="geometry"/>
                </mxCell>
                <mxCell id="Sq5pJA0LLEWkR0wtko4C-18" style="edgeStyle=none;rounded=0;orthogonalLoop=1;jettySize=auto;html=1;entryX=1.033;entryY=0.756;entryDx=0;entryDy=0;entryPerimeter=0;" parent="1" source="Sq5pJA0LLEWkR0wtko4C-19" target="Sq5pJA0LLEWkR0wtko4C-26" edge="1">
                    <mxGeometry relative="1" as="geometry"/>
                </mxCell>
                <mxCell id="Sq5pJA0LLEWkR0wtko4C-19" value="Task" style="whiteSpace=wrap;html=1;align=center;" parent="1" vertex="1">
                    <mxGeometry x="510" y="300" width="100" height="40" as="geometry"/>
                </mxCell>
                <mxCell id="Sq5pJA0LLEWkR0wtko4C-20" value="has a" style="shape=rhombus;perimeter=rhombusPerimeter;whiteSpace=wrap;html=1;align=center;" parent="1" vertex="1">
                    <mxGeometry x="265" y="280" width="120" height="60" as="geometry"/>
                </mxCell>
                <mxCell id="Sq5pJA0LLEWkR0wtko4C-21" value="description" style="ellipse;whiteSpace=wrap;html=1;align=center;" parent="1" vertex="1">
                    <mxGeometry x="580" y="235" width="70" height="35" as="geometry"/>
                </mxCell>
                <mxCell id="Sq5pJA0LLEWkR0wtko4C-22" value="assigning date" style="ellipse;whiteSpace=wrap;html=1;align=center;" parent="1" vertex="1">
                    <mxGeometry x="630" y="270" width="70" height="35" as="geometry"/>
                </mxCell>
                <mxCell id="Sq5pJA0LLEWkR0wtko4C-23" value="ending date" style="ellipse;whiteSpace=wrap;html=1;align=center;" parent="1" vertex="1">
                    <mxGeometry x="630" y="320" width="70" height="35" as="geometry"/>
                </mxCell>
                <mxCell id="Sq5pJA0LLEWkR0wtko4C-24" value="priority" style="ellipse;whiteSpace=wrap;html=1;align=center;" parent="1" vertex="1">
                    <mxGeometry x="570" y="355" width="70" height="35" as="geometry"/>
                </mxCell>
                <mxCell id="Sq5pJA0LLEWkR0wtko4C-25" value="title" style="ellipse;whiteSpace=wrap;html=1;align=center;" parent="1" vertex="1">
                    <mxGeometry x="500" y="235" width="70" height="35" as="geometry"/>
                </mxCell>
                <mxCell id="Sq5pJA0LLEWkR0wtko4C-26" value="id" style="ellipse;whiteSpace=wrap;html=1;align=center;fontStyle=4;" parent="1" vertex="1">
                    <mxGeometry x="450" y="260" width="50" height="30" as="geometry"/>
                </mxCell>
                <mxCell id="Sq5pJA0LLEWkR0wtko4C-27" value="" style="shape=link;html=1;rounded=0;exitX=1;exitY=0.5;exitDx=0;exitDy=0;entryX=0;entryY=0.5;entryDx=0;entryDy=0;" parent="1" source="Sq5pJA0LLEWkR0wtko4C-20" target="Sq5pJA0LLEWkR0wtko4C-19" edge="1">
                    <mxGeometry relative="1" as="geometry">
                        <mxPoint x="340" y="270" as="sourcePoint"/>
                        <mxPoint x="500" y="270" as="targetPoint"/>
                    </mxGeometry>
                </mxCell>
                <mxCell id="Sq5pJA0LLEWkR0wtko4C-28" value="N" style="resizable=0;html=1;align=right;verticalAlign=bottom;" parent="Sq5pJA0LLEWkR0wtko4C-27" connectable="0" vertex="1">
                    <mxGeometry x="1" relative="1" as="geometry">
                        <mxPoint x="-99.6" y="-9.97" as="offset"/>
                    </mxGeometry>
                </mxCell>
                <mxCell id="Sq5pJA0LLEWkR0wtko4C-29" value="" style="endArrow=none;html=1;rounded=0;exitX=0.5;exitY=1;exitDx=0;exitDy=0;entryX=0;entryY=0.5;entryDx=0;entryDy=0;" parent="1" source="Sq5pJA0LLEWkR0wtko4C-7" target="Sq5pJA0LLEWkR0wtko4C-20" edge="1">
                    <mxGeometry relative="1" as="geometry">
                        <mxPoint x="340" y="270" as="sourcePoint"/>
                        <mxPoint x="500" y="270" as="targetPoint"/>
                    </mxGeometry>
                </mxCell>
                <mxCell id="Sq5pJA0LLEWkR0wtko4C-30" value="1" style="resizable=0;html=1;align=right;verticalAlign=bottom;" parent="Sq5pJA0LLEWkR0wtko4C-29" connectable="0" vertex="1">
                    <mxGeometry x="1" relative="1" as="geometry">
                        <mxPoint x="-4.76" y="-19.66" as="offset"/>
                    </mxGeometry>
                </mxCell>
            </root>
        </mxGraphModel>
    </diagram>
</mxfile>